<svg xmlns="http://www.w3.org/2000/svg" xmlns:xlink="http://www.w3.org/1999/xlink" width="243" zoomAndPan="magnify" viewBox="0 0 182.25 159.749995" height="213" preserveAspectRatio="xMidYMid meet" version="1.0"><defs><clipPath id="8a0c83b981"><path d="M 29.652344 30.332031 L 181.277344 30.332031 L 181.277344 159.003906 L 29.652344 159.003906 Z M 29.652344 30.332031 " clip-rule="nonzero"/></clipPath><clipPath id="cfc3fe6b72"><path d="M 29.652344 30.332031 L 181.277344 30.332031 L 181.277344 159.003906 L 29.652344 159.003906 Z M 29.652344 30.332031 " clip-rule="nonzero"/></clipPath></defs><path fill="#004aad" d="M 126.152344 3.152344 L 126.152344 86.460938 C 126.152344 86.460938 95.164062 23.976562 58.589844 14.328125 C 20.535156 4.285156 0 28.382812 0 28.382812 C 0 28.382812 54.714844 0.289062 88.050781 62.585938 C 125.023438 131.671875 151.550781 131.671875 151.550781 131.671875 L 151.550781 28.550781 C 151.550781 14.523438 140.179688 3.152344 126.152344 3.152344 " fill-opacity="1" fill-rule="nonzero"/><g clip-path="url(#8a0c83b981)"><path fill="#38b6ff" d="M 55.128906 159.003906 L 55.128906 75.691406 C 55.128906 75.691406 86.117188 138.175781 122.691406 147.828125 C 160.742188 157.871094 181.28125 133.773438 181.28125 133.773438 C 181.28125 133.773438 126.566406 161.863281 93.226562 99.570312 C 56.257812 30.480469 29.726562 30.480469 29.726562 30.480469 L 29.726562 133.605469 C 29.726562 147.632812 41.101562 159.003906 55.128906 159.003906 " fill-opacity="1" fill-rule="nonzero"/></g><path fill="#eb4155" d="M 126.152344 3.152344 L 126.152344 86.460938 C 126.152344 86.460938 95.164062 23.976562 58.589844 14.328125 C 20.535156 4.285156 0 28.382812 0 28.382812 C 0 28.382812 54.714844 0.289062 88.050781 62.585938 C 125.023438 131.671875 151.550781 131.671875 151.550781 131.671875 L 151.550781 28.550781 C 151.550781 14.523438 140.179688 3.152344 126.152344 3.152344 " fill-opacity="1" fill-rule="nonzero"/><g clip-path="url(#cfc3fe6b72)"><path fill="#ffffff" d="M 55.128906 159.003906 L 55.128906 75.691406 C 55.128906 75.691406 86.117188 138.175781 122.691406 147.828125 C 160.742188 157.871094 181.28125 133.773438 181.28125 133.773438 C 181.28125 133.773438 126.566406 161.863281 93.226562 99.570312 C 56.257812 30.480469 29.726562 30.480469 29.726562 30.480469 L 29.726562 133.605469 C 29.726562 147.632812 41.101562 159.003906 55.128906 159.003906 " fill-opacity="1" fill-rule="nonzero"/></g></svg>